<?xml version="1.0" encoding="UTF-8"?>
<svg xmlns="http://www.w3.org/2000/svg" xmlns:xlink="http://www.w3.org/1999/xlink" width="375pt" height="374.999991pt" viewBox="0 0 375 374.999991" version="1.2">
<defs>
<clipPath id="clip1">
  <path d="M 101 134 L 166 134 L 166 210.316406 L 101 210.316406 Z M 101 134 "/>
</clipPath>
<clipPath id="clip2">
  <path d="M 139 114 L 237 114 L 237 210.316406 L 139 210.316406 Z M 139 114 "/>
</clipPath>
</defs>
<g id="surface1">
<rect x="0" y="0" width="375" height="374.999991" style="fill:rgb(100%,100%,100%);fill-opacity:0;stroke:none;"/>
<rect x="0" y="0" width="375" height="374.999991" style="fill:rgb(100%,100%,100%);fill-opacity:0;stroke:none;"/>
<g clip-path="url(#clip1)" clip-rule="nonzero">
<path style=" stroke:none;fill-rule:nonzero;fill:rgb(0%,76.078796%,79.60968%);fill-opacity:1;" d="M 161.261719 184.515625 L 147.9375 197.832031 C 143.355469 202.40625 137.347656 204.6875 131.332031 204.6875 C 125.320312 204.6875 119.308594 202.40625 114.730469 197.832031 C 105.578125 188.6875 105.578125 173.804688 114.730469 164.664062 L 134.640625 144.773438 C 134.628906 144.421875 134.621094 144.074219 134.621094 143.71875 C 134.621094 140.714844 135.007812 137.773438 135.753906 134.945312 L 110.367188 160.304688 C 98.804688 171.855469 98.804688 190.644531 110.367188 202.1875 C 116.144531 207.960938 123.742188 210.847656 131.332031 210.847656 C 138.925781 210.847656 146.515625 207.960938 152.296875 202.1875 L 165.625 188.875 Z M 161.261719 184.515625 "/>
</g>
<g clip-path="url(#clip2)" clip-rule="nonzero">
<path style=" stroke:none;fill-rule:nonzero;fill:rgb(0%,76.078796%,79.60968%);fill-opacity:1;" d="M 206.464844 210.851562 C 198.875 210.851562 191.28125 207.964844 185.5 202.191406 L 147.9375 164.664062 C 142.332031 159.066406 139.253906 151.632812 139.253906 143.71875 C 139.253906 135.808594 142.335938 128.371094 147.9375 122.777344 C 159.496094 111.226562 178.304688 111.226562 189.863281 122.777344 L 227.425781 160.300781 C 238.988281 171.851562 238.988281 190.640625 227.425781 202.183594 C 221.648438 207.960938 214.058594 210.851562 206.464844 210.851562 Z M 189.863281 197.832031 C 199.015625 206.972656 213.910156 206.972656 223.066406 197.832031 C 232.21875 188.6875 232.21875 173.804688 223.066406 164.664062 L 185.5 127.136719 C 176.347656 117.992188 161.449219 117.992188 152.296875 127.136719 C 147.863281 131.566406 145.421875 137.453125 145.421875 143.722656 C 145.421875 149.988281 147.863281 155.875 152.296875 160.308594 Z M 189.863281 197.832031 "/>
</g>
<path style=" stroke:none;fill-rule:nonzero;fill:rgb(0%,76.078796%,79.60968%);fill-opacity:1;" d="M 223.066406 122.78125 L 209.738281 136.09375 L 214.101562 140.449219 L 227.425781 127.136719 C 236.582031 117.992188 251.476562 117.992188 260.628906 127.136719 C 269.78125 136.28125 269.78125 151.160156 260.628906 160.304688 L 240.707031 180.207031 C 240.804688 183.515625 240.429688 186.832031 239.574219 190.050781 L 264.992188 164.664062 C 276.554688 153.113281 276.554688 134.324219 264.992188 122.78125 C 253.433594 111.230469 234.625 111.230469 223.066406 122.78125 Z M 223.066406 122.78125 "/>
</g>
</svg>
